<?xml version="1.0" encoding="UTF-8"?>
<svg id="Layer_2" data-name="Layer 2" xmlns="http://www.w3.org/2000/svg" width="167" height="40" viewBox="0 0 1008.05 241.72">
  <defs>
    <style>
      .cls-1 {
        fill: #42743b; 
      }
    </style>
  </defs>
  <g id="Layer_1-2" data-name="Layer 1">
    <path class="cls-1" d="M1008.05,169.85h-33.78V46.86h33.78v122.99ZM974.27,0h33.78v27.83h-33.78V0ZM918.13,122.27c0,1.9-.2,4.44-.6,7.61-.4,3.17-1.47,6.3-3.21,9.4-1.75,3.09-4.44,5.75-8.09,7.97-3.65,2.22-8.8,3.33-15.46,3.33-2.7,0-5.32-.24-7.85-.71-2.54-.48-4.76-1.31-6.66-2.5-1.9-1.19-3.41-2.81-4.52-4.88-1.11-2.06-1.66-4.6-1.66-7.61,0-3.17.55-5.79,1.66-7.85,1.11-2.06,2.58-3.77,4.4-5.11,1.82-1.35,3.96-2.42,6.42-3.21,2.46-.79,4.96-1.43,7.49-1.9,2.7-.48,5.39-.87,8.09-1.19,2.7-.32,5.27-.71,7.73-1.19,2.46-.48,4.76-1.07,6.9-1.78,2.14-.71,3.93-1.7,5.35-2.97v12.61ZM873.88,84.69c.63-6.66,2.85-11.42,6.66-14.27,3.81-2.85,9.04-4.28,15.7-4.28,3.01,0,5.83.2,8.45.6,2.62.4,4.91,1.19,6.9,2.38,1.98,1.19,3.57,2.85,4.76,4.99,1.19,2.14,1.78,5.04,1.78,8.68.16,3.49-.87,6.15-3.09,7.97-2.22,1.82-5.23,3.21-9.04,4.16-3.81.95-8.17,1.67-13.08,2.14-4.92.48-9.91,1.11-14.99,1.9-5.08.8-10.11,1.87-15.1,3.21-5,1.35-9.44,3.37-13.32,6.07-3.89,2.7-7.06,6.3-9.52,10.82-2.46,4.52-3.69,10.27-3.69,17.25,0,6.35,1.07,11.82,3.21,16.41,2.14,4.6,5.11,8.41,8.92,11.42,3.81,3.01,8.24,5.23,13.32,6.66,5.07,1.43,10.55,2.14,16.41,2.14,7.61,0,15.07-1.11,22.36-3.33,7.29-2.22,13.64-6.1,19.03-11.66.16,2.06.43,4.08.83,6.07.39,1.99.91,3.93,1.55,5.83h34.26c-1.59-2.54-2.7-6.34-3.33-11.42-.64-5.07-.95-10.38-.95-15.94v-63.99c0-7.45-1.66-13.44-4.99-17.96-3.33-4.52-7.61-8.05-12.85-10.59-5.23-2.54-11.02-4.24-17.36-5.12-6.35-.87-12.61-1.31-18.79-1.31-6.82,0-13.6.68-20.34,2.02-6.74,1.35-12.81,3.61-18.2,6.78-5.39,3.17-9.84,7.37-13.32,12.61-3.49,5.23-5.47,11.82-5.95,19.74h33.78ZM710.93,0v65.18h68.75V0h37.35v169.85h-37.35v-73.27h-68.75v73.27h-37.35V0h37.35ZM649.32,119.42h-71.6v-29.02h71.6v29.02ZM556.07,169.85h-33.78V0h33.78v169.85ZM425.71,140.35c5.07,4.92,12.37,7.38,21.89,7.38,6.82,0,12.69-1.7,17.6-5.12,4.91-3.41,7.93-7.02,9.04-10.82h29.73c-4.76,14.75-12.05,25.3-21.89,31.64-9.84,6.35-21.73,9.51-35.68,9.51-9.67,0-18.4-1.55-26.17-4.64-7.77-3.09-14.36-7.49-19.74-13.2-5.39-5.71-9.56-12.53-12.49-20.46-2.94-7.93-4.4-16.65-4.4-26.17s1.51-17.76,4.52-25.69c3.01-7.93,7.29-14.79,12.85-20.58,5.55-5.79,12.17-10.35,19.86-13.68,7.69-3.33,16.21-5,25.57-5,10.47,0,19.58,2.02,27.36,6.07,7.77,4.04,14.15,9.48,19.15,16.29,5,6.82,8.6,14.59,10.82,23.31,2.22,8.72,3.01,17.84,2.38,27.36h-88.73c.48,10.94,3.25,18.87,8.33,23.79M463.89,75.65c-4.04-4.44-10.19-6.66-18.44-6.66-5.39,0-9.87.91-13.44,2.74-3.57,1.83-6.42,4.08-8.56,6.78-2.14,2.7-3.65,5.55-4.52,8.56-.87,3.01-1.39,5.71-1.55,8.09h54.95c-1.59-8.56-4.4-15.07-8.45-19.51M265.61,31.4V0h139.16v31.4h-50.91v138.45h-37.35V31.4h-50.91Z"/>
    <path class="cls-1" d="M989.18,223.01c.31,1.18.8,2.25,1.48,3.19.68.94,1.54,1.72,2.58,2.34,1.04.62,2.29.92,3.75.92,2.24,0,3.99-.58,5.25-1.75,1.27-1.17,2.14-2.72,2.63-4.67h3.06c-.65,2.85-1.84,5.06-3.58,6.62-1.74,1.56-4.19,2.34-7.37,2.34-1.98,0-3.69-.35-5.13-1.05-1.44-.7-2.62-1.65-3.53-2.87-.91-1.22-1.58-2.63-2.02-4.23-.44-1.61-.66-3.3-.66-5.08,0-1.65.22-3.28.66-4.87.44-1.59,1.11-3.01,2.02-4.26.91-1.25,2.08-2.25,3.53-3.02,1.44-.76,3.15-1.14,5.13-1.14s3.73.4,5.16,1.22c1.43.81,2.59,1.87,3.48,3.19.89,1.31,1.53,2.82,1.92,4.52.39,1.7.55,3.43.49,5.18h-19.31c0,1.1.15,2.25.46,3.43M1004.36,213.65c-.37-1.07-.9-2.02-1.58-2.85-.68-.83-1.51-1.49-2.48-1.99-.97-.5-2.08-.75-3.31-.75s-2.38.25-3.36.75-1.8,1.17-2.48,1.99c-.68.83-1.22,1.78-1.63,2.87-.41,1.09-.67,2.2-.8,3.33h16.25c-.03-1.17-.23-2.29-.61-3.36M978.46,211.09c-.36-.7-.84-1.27-1.43-1.73-.6-.45-1.29-.79-2.07-1-.78-.21-1.61-.32-2.48-.32-.68,0-1.37.07-2.07.22-.7.15-1.34.39-1.92.73-.58.34-1.05.79-1.41,1.34-.36.55-.54,1.23-.54,2.04,0,.68.17,1.26.51,1.73.34.47.77.87,1.29,1.19.52.32,1.09.59,1.7.8.62.21,1.18.38,1.7.51l4.09.92c.88.13,1.74.36,2.6.71.86.34,1.62.79,2.29,1.34.66.55,1.21,1.23,1.63,2.04.42.81.63,1.77.63,2.87,0,1.36-.31,2.52-.93,3.48-.62.96-1.4,1.74-2.36,2.34-.96.6-2.03,1.03-3.23,1.29-1.2.26-2.38.39-3.55.39-2.95,0-5.34-.7-7.17-2.09-1.83-1.39-2.88-3.63-3.14-6.71h3.07c.13,2.08.88,3.64,2.26,4.7,1.38,1.05,3.09,1.58,5.13,1.58.75,0,1.52-.08,2.31-.24.79-.16,1.53-.44,2.21-.83.68-.39,1.24-.88,1.68-1.48.44-.6.66-1.34.66-2.21,0-.75-.15-1.37-.46-1.87-.31-.5-.72-.92-1.24-1.26-.52-.34-1.11-.62-1.78-.85-.67-.23-1.34-.42-2.02-.58l-3.94-.88c-1.01-.26-1.93-.56-2.77-.9-.84-.34-1.58-.76-2.21-1.26-.63-.5-1.13-1.12-1.48-1.85-.36-.73-.54-1.63-.54-2.7,0-1.26.28-2.35.85-3.26.57-.91,1.3-1.64,2.21-2.19.91-.55,1.92-.96,3.04-1.22,1.12-.26,2.23-.39,3.33-.39,1.27,0,2.44.16,3.53.49,1.09.33,2.04.83,2.87,1.51.83.68,1.48,1.52,1.97,2.53.49,1.01.76,2.19.83,3.55h-3.07c-.03-.94-.23-1.76-.58-2.46M958.61,231.31h-3.07v-25.1h3.07v25.1ZM958.61,201.49h-3.07v-4.91h3.07v4.91ZM943.48,206.2v5.89h.1c.78-2.04,1.99-3.62,3.62-4.72,1.64-1.1,3.59-1.61,5.86-1.51v3.06c-1.4-.06-2.66.12-3.79.56-1.14.44-2.12,1.06-2.94,1.87-.83.81-1.47,1.77-1.92,2.89-.46,1.12-.68,2.34-.68,3.67v13.38h-3.07v-25.1h2.82ZM906.77,223.01c.31,1.18.8,2.25,1.48,3.19.68.94,1.54,1.72,2.58,2.34,1.04.62,2.29.92,3.75.92,2.24,0,3.99-.58,5.25-1.75,1.27-1.17,2.14-2.72,2.63-4.67h3.06c-.65,2.85-1.84,5.06-3.58,6.62-1.73,1.56-4.19,2.34-7.37,2.34-1.98,0-3.69-.35-5.13-1.05-1.44-.7-2.62-1.65-3.53-2.87-.91-1.22-1.58-2.63-2.02-4.23-.44-1.61-.66-3.3-.66-5.08,0-1.65.22-3.28.66-4.87.44-1.59,1.11-3.01,2.02-4.26.91-1.25,2.08-2.25,3.53-3.02,1.44-.76,3.15-1.14,5.13-1.14s3.73.4,5.16,1.22c1.43.81,2.59,1.87,3.48,3.19.89,1.31,1.53,2.82,1.92,4.52.39,1.7.55,3.43.49,5.18h-19.31c0,1.1.15,2.25.46,3.43M921.94,213.65c-.37-1.07-.9-2.02-1.58-2.85-.68-.83-1.51-1.49-2.48-1.99s-2.08-.75-3.31-.75-2.38.25-3.36.75-1.8,1.17-2.48,1.99c-.68.83-1.22,1.78-1.63,2.87-.41,1.09-.67,2.2-.8,3.33h16.25c-.03-1.17-.24-2.29-.61-3.36M881.88,196.57v13.96h.1c.58-1.52,1.62-2.75,3.11-3.67,1.49-.92,3.13-1.39,4.91-1.39s3.22.23,4.4.68c1.18.45,2.13,1.09,2.85,1.92.71.83,1.22,1.84,1.51,3.04.29,1.2.44,2.55.44,4.04v16.15h-3.06v-15.66c0-1.07-.1-2.07-.29-2.99-.2-.93-.53-1.73-1.02-2.41-.49-.68-1.14-1.22-1.97-1.61-.83-.39-1.86-.58-3.09-.58s-2.33.22-3.28.66c-.96.44-1.77,1.04-2.43,1.8-.66.76-1.18,1.67-1.56,2.72-.37,1.06-.58,2.2-.61,3.43v14.64h-3.06v-34.73h3.06ZM874.93,206.2v2.58h-5.11v16.93c0,1.01.14,1.79.41,2.36.28.57.97.88,2.07.95.88,0,1.75-.05,2.63-.15v2.58c-.45,0-.91.02-1.36.05-.45.03-.91.05-1.36.05-2.04,0-3.47-.4-4.28-1.19-.81-.79-1.2-2.26-1.17-4.4v-17.17h-4.38v-2.58h4.38v-7.54h3.06v7.54h5.11ZM830.94,206.2v4.33h.1c.58-1.52,1.62-2.75,3.11-3.67,1.49-.92,3.13-1.39,4.91-1.39s3.22.23,4.4.68c1.18.45,2.13,1.09,2.84,1.92.71.83,1.22,1.84,1.51,3.04.29,1.2.44,2.55.44,4.04v16.15h-3.06v-15.66c0-1.07-.1-2.07-.29-2.99-.2-.93-.54-1.73-1.02-2.41-.49-.68-1.14-1.22-1.97-1.61-.83-.39-1.86-.58-3.09-.58s-2.33.22-3.28.66c-.96.44-1.77,1.04-2.43,1.8-.67.76-1.18,1.67-1.56,2.72-.37,1.06-.58,2.2-.61,3.43v14.64h-3.06v-25.1h3.06ZM792.12,207.08c.68-2.17,1.7-4.09,3.06-5.76,1.36-1.67,3.07-3,5.13-3.99,2.06-.99,4.45-1.48,7.18-1.48s5.11.5,7.15,1.48c2.04.99,3.75,2.32,5.11,3.99,1.36,1.67,2.38,3.59,3.07,5.76.68,2.17,1.02,4.46,1.02,6.86s-.34,4.69-1.02,6.86c-.68,2.17-1.7,4.09-3.07,5.74-1.36,1.65-3.06,2.98-5.11,3.96-2.04.99-4.43,1.48-7.15,1.48s-5.12-.49-7.18-1.48c-2.06-.99-3.77-2.31-5.13-3.96-1.36-1.65-2.38-3.57-3.06-5.74-.68-2.17-1.02-4.46-1.02-6.86s.34-4.69,1.02-6.86M795.16,219.51c.5,1.83,1.28,3.47,2.33,4.91,1.05,1.44,2.41,2.6,4.06,3.48,1.65.88,3.63,1.31,5.93,1.31s4.27-.44,5.91-1.31c1.64-.88,2.98-2.04,4.04-3.48,1.05-1.44,1.83-3.08,2.34-4.91.5-1.83.75-3.69.75-5.57s-.25-3.78-.75-5.59c-.5-1.82-1.28-3.45-2.34-4.89-1.05-1.44-2.4-2.6-4.04-3.48-1.64-.88-3.61-1.31-5.91-1.31s-4.28.44-5.93,1.31c-1.65.88-3.01,2.03-4.06,3.48-1.05,1.44-1.83,3.07-2.33,4.89-.5,1.82-.75,3.68-.75,5.59s.25,3.74.75,5.57M767.22,219.79c0,.46-.05,1.07-.14,1.84-.1.77-.35,1.52-.78,2.27-.42.75-1.08,1.39-1.96,1.93-.88.54-2.13.81-3.74.81-.65,0-1.29-.06-1.9-.17-.61-.11-1.15-.32-1.61-.6-.46-.29-.83-.68-1.09-1.18-.27-.5-.4-1.11-.4-1.84,0-.77.13-1.4.4-1.9.27-.5.62-.91,1.07-1.24.44-.32.96-.58,1.55-.78.59-.19,1.2-.35,1.81-.46.65-.12,1.3-.21,1.96-.29.65-.08,1.28-.17,1.87-.29.59-.12,1.15-.26,1.67-.43.52-.17.95-.41,1.3-.72v3.05ZM756.52,210.7c.15-1.61.69-2.76,1.61-3.45.92-.69,2.19-1.04,3.8-1.04.73,0,1.41.05,2.04.14.63.1,1.19.29,1.67.57.48.29.86.69,1.15,1.21.29.52.43,1.22.43,2.1.04.85-.21,1.49-.75,1.93-.54.44-1.27.78-2.19,1.01-.92.23-1.98.4-3.17.52-1.19.11-2.4.27-3.63.46-1.23.19-2.45.45-3.65.78-1.21.33-2.28.82-3.22,1.47-.94.65-1.71,1.53-2.3,2.62-.6,1.09-.89,2.49-.89,4.17,0,1.54.26,2.86.78,3.97.52,1.11,1.24,2.03,2.16,2.76.92.73,1.99,1.27,3.22,1.61,1.23.35,2.55.52,3.97.52,1.84,0,3.65-.27,5.41-.81,1.77-.54,3.3-1.48,4.6-2.82.04.5.11.99.2,1.47.09.48.22.95.37,1.41h8.29c-.38-.61-.65-1.53-.81-2.76-.15-1.23-.23-2.51-.23-3.86v-15.48c0-1.8-.4-3.25-1.21-4.35-.81-1.09-1.84-1.95-3.11-2.56-1.27-.61-2.67-1.03-4.2-1.24-1.54-.21-3.05-.32-4.55-.32-1.65,0-3.29.16-4.92.49-1.63.33-3.1.87-4.4,1.64-1.3.77-2.38,1.79-3.22,3.05-.84,1.27-1.32,2.86-1.44,4.78h8.17ZM722.9,201.55v4.14h.17c1.04-1.73,2.38-2.98,4.03-3.77,1.65-.79,3.34-1.18,5.07-1.18,2.19,0,3.98.3,5.38.89,1.4.6,2.5,1.42,3.31,2.48.81,1.06,1.37,2.34,1.7,3.86.33,1.52.49,3.19.49,5.04v18.31h-8.17v-16.81c0-2.46-.38-4.29-1.15-5.5-.77-1.21-2.13-1.81-4.09-1.81-2.23,0-3.84.66-4.84,1.99-1,1.32-1.5,3.5-1.5,6.53v15.6h-8.17v-29.76h7.77ZM680.71,209.98c.73-1.94,1.76-3.59,3.11-4.95,1.34-1.36,2.96-2.42,4.84-3.17s3.99-1.12,6.33-1.12,4.46.37,6.36,1.12c1.9.75,3.52,1.8,4.86,3.17,1.34,1.36,2.38,3.01,3.11,4.95.73,1.94,1.09,4.1,1.09,6.48s-.36,4.53-1.09,6.45c-.73,1.92-1.77,3.56-3.11,4.92-1.34,1.36-2.97,2.41-4.86,3.14-1.9.73-4.02,1.09-6.36,1.09s-4.45-.37-6.33-1.09c-1.88-.73-3.49-1.77-4.84-3.14-1.34-1.36-2.38-3-3.11-4.92-.73-1.92-1.09-4.07-1.09-6.45s.36-4.54,1.09-6.48M688.13,219.94c.23,1.13.62,2.15,1.18,3.05.56.9,1.29,1.62,2.22,2.16.92.54,2.07.81,3.45.81s2.54-.27,3.48-.81c.94-.54,1.69-1.26,2.24-2.16.55-.9.95-1.92,1.18-3.05.23-1.13.34-2.29.34-3.48s-.11-2.36-.34-3.51c-.23-1.15-.62-2.17-1.18-3.05-.56-.88-1.3-1.6-2.24-2.16-.94-.56-2.1-.83-3.48-.83s-2.53.28-3.45.83c-.92.56-1.66,1.28-2.22,2.16-.56.88-.95,1.9-1.18,3.05-.23,1.15-.35,2.32-.35,3.51s.11,2.35.35,3.48M636.9,201.55v4.03h.12c1.07-1.54,2.37-2.73,3.88-3.57,1.52-.84,3.25-1.27,5.21-1.27s3.6.37,5.15,1.09c1.55.73,2.73,2.01,3.54,3.86.88-1.3,2.08-2.46,3.6-3.45,1.52-1,3.31-1.5,5.38-1.5,1.57,0,3.03.19,4.38.57,1.34.38,2.49,1,3.45,1.84.96.84,1.71,1.95,2.24,3.31.54,1.36.81,3,.81,4.92v19.92h-8.17v-16.87c0-1-.04-1.94-.11-2.82-.08-.88-.29-1.65-.63-2.3-.34-.65-.85-1.17-1.52-1.55-.67-.38-1.58-.58-2.73-.58s-2.08.22-2.79.66c-.71.44-1.27,1.02-1.67,1.73-.4.71-.67,1.52-.81,2.42-.14.9-.2,1.81-.2,2.73v16.58h-8.17v-16.69c0-.88-.02-1.76-.06-2.62-.04-.86-.2-1.66-.49-2.39-.29-.73-.77-1.31-1.44-1.76-.67-.44-1.66-.66-2.97-.66-.38,0-.89.09-1.53.26-.63.17-1.25.5-1.84.98-.6.48-1.1,1.17-1.53,2.07-.42.9-.63,2.08-.63,3.54v17.27h-8.17v-29.76h7.71ZM603.57,190.21v15.48h.17c1.04-1.73,2.36-2.98,3.97-3.77,1.61-.79,3.18-1.18,4.72-1.18,2.19,0,3.98.3,5.38.89,1.4.6,2.5,1.42,3.31,2.48.8,1.06,1.37,2.34,1.7,3.86.33,1.52.49,3.19.49,5.04v18.31h-8.17v-16.81c0-2.46-.38-4.29-1.15-5.5-.77-1.21-2.13-1.81-4.09-1.81-2.23,0-3.84.66-4.84,1.99-1,1.32-1.5,3.5-1.5,6.53v15.6h-8.17v-41.1h8.17ZM566.39,221.17c.5.96,1.16,1.74,1.99,2.33.82.6,1.79,1.04,2.91,1.32,1.11.29,2.26.43,3.45.43.81,0,1.67-.07,2.59-.2.92-.13,1.78-.39,2.59-.78.81-.38,1.48-.91,2.02-1.58.54-.67.8-1.53.8-2.56,0-1.11-.35-2.01-1.06-2.7-.71-.69-1.64-1.27-2.79-1.73-1.15-.46-2.46-.86-3.91-1.21-1.46-.35-2.94-.73-4.43-1.15-1.53-.38-3.03-.85-4.49-1.41-1.46-.56-2.76-1.28-3.91-2.16s-2.08-1.99-2.79-3.31c-.71-1.32-1.07-2.93-1.07-4.81,0-2.11.45-3.94,1.35-5.5.9-1.55,2.08-2.85,3.54-3.89,1.46-1.04,3.11-1.8,4.95-2.3,1.84-.5,3.68-.75,5.53-.75,2.15,0,4.21.24,6.19.72,1.98.48,3.73,1.26,5.27,2.33,1.53,1.08,2.75,2.45,3.65,4.12.9,1.67,1.35,3.69,1.35,6.07h-8.75c-.08-1.23-.34-2.24-.78-3.05-.44-.81-1.03-1.44-1.76-1.9-.73-.46-1.56-.79-2.5-.98-.94-.19-1.97-.29-3.08-.29-.73,0-1.46.08-2.19.23-.73.15-1.39.42-1.99.81-.59.38-1.08.86-1.47,1.44-.38.57-.58,1.3-.58,2.19,0,.81.15,1.46.46,1.96.31.5.91.96,1.81,1.38.9.42,2.15.84,3.74,1.27,1.59.42,3.67.96,6.25,1.61.77.15,1.83.43,3.19.83s2.71,1.05,4.06,1.93c1.34.88,2.5,2.06,3.48,3.54.98,1.48,1.47,3.37,1.47,5.67,0,1.88-.36,3.63-1.09,5.24s-1.81,3-3.25,4.17c-1.44,1.17-3.22,2.08-5.35,2.74-2.13.65-4.6.98-7.4.98-2.27,0-4.46-.28-6.59-.84-2.13-.55-4.01-1.43-5.64-2.62-1.63-1.19-2.93-2.71-3.89-4.55s-1.42-4.03-1.38-6.56h8.75c0,1.38.25,2.55.75,3.51M539.85,201.55v5.47h-5.99v14.74c0,1.38.23,2.3.69,2.76.46.46,1.38.69,2.76.69.46,0,.9-.02,1.32-.06.42-.04.82-.1,1.21-.17v6.33c-.69.12-1.46.19-2.3.23-.85.04-1.67.06-2.48.06-1.27,0-2.47-.09-3.6-.26-1.13-.17-2.13-.51-2.99-1.01-.86-.5-1.54-1.21-2.04-2.13-.5-.92-.75-2.13-.75-3.63v-17.56h-4.95v-5.47h4.95v-8.92h8.17v8.92h5.99ZM509.57,219.79c0,.46-.05,1.07-.14,1.84-.1.77-.36,1.52-.78,2.27-.42.75-1.08,1.39-1.96,1.93-.88.54-2.13.81-3.74.81-.65,0-1.29-.06-1.9-.17-.61-.11-1.15-.32-1.61-.6-.46-.29-.83-.68-1.09-1.18-.27-.5-.4-1.11-.4-1.84,0-.77.13-1.4.4-1.9.27-.5.62-.91,1.07-1.24.44-.32.96-.58,1.55-.78.59-.19,1.2-.35,1.81-.46.65-.12,1.3-.21,1.96-.29.65-.08,1.28-.17,1.87-.29.59-.12,1.15-.26,1.67-.43.52-.17.95-.41,1.3-.72v3.05ZM498.87,210.7c.15-1.61.69-2.76,1.61-3.45.92-.69,2.19-1.04,3.8-1.04.73,0,1.41.05,2.04.14.63.1,1.19.29,1.67.57.48.29.86.69,1.15,1.21.29.52.43,1.22.43,2.1.04.85-.21,1.49-.75,1.93-.54.44-1.27.78-2.19,1.01-.92.23-1.98.4-3.17.52-1.19.11-2.4.27-3.63.46-1.23.19-2.45.45-3.66.78-1.21.33-2.28.82-3.22,1.47-.94.65-1.71,1.53-2.3,2.62-.6,1.09-.89,2.49-.89,4.17,0,1.54.26,2.86.78,3.97.52,1.11,1.24,2.03,2.16,2.76.92.73,1.99,1.27,3.22,1.61,1.23.35,2.55.52,3.97.52,1.84,0,3.64-.27,5.41-.81,1.77-.54,3.3-1.48,4.61-2.82.04.5.1.99.2,1.47s.22.95.38,1.41h8.29c-.38-.61-.65-1.53-.81-2.76-.15-1.23-.23-2.51-.23-3.86v-15.48c0-1.8-.4-3.25-1.21-4.35-.81-1.09-1.84-1.95-3.11-2.56-1.27-.61-2.67-1.03-4.2-1.24-1.53-.21-3.05-.32-4.55-.32-1.65,0-3.29.16-4.92.49-1.63.33-3.1.87-4.4,1.64-1.31.77-2.38,1.79-3.22,3.05-.84,1.27-1.32,2.86-1.44,4.78h8.17ZM472.73,240.17c-1.57,1.04-3.76,1.55-6.56,1.55-.85,0-1.68-.03-2.5-.09-.83-.06-1.66-.12-2.5-.2v-6.74c.77.08,1.55.15,2.36.23.81.08,1.61.1,2.42.06,1.07-.12,1.87-.54,2.39-1.27.52-.73.78-1.54.78-2.42,0-.65-.11-1.27-.35-1.84l-10.42-27.92h8.69l6.73,20.38h.12l6.5-20.38h8.46l-12.43,33.44c-.88,2.42-2.11,4.14-3.68,5.18M447.69,201.55v5.53h.11c.38-.92.9-1.77,1.55-2.56.65-.79,1.4-1.46,2.24-2.01.84-.56,1.75-.99,2.71-1.29.96-.31,1.96-.46,2.99-.46.54,0,1.13.1,1.78.29v7.6c-.38-.08-.84-.14-1.38-.2-.54-.06-1.06-.09-1.55-.09-1.5,0-2.76.25-3.8.75-1.04.5-1.87,1.18-2.5,2.04-.63.86-1.08,1.87-1.35,3.02-.27,1.15-.4,2.4-.4,3.74v13.41h-8.17v-29.76h7.77ZM434.05,231.31h-8.17v-29.76h8.17v29.76ZM425.88,190.21h8.17v6.74h-8.17v-6.74ZM394.56,190.21v17.04l16.06-17.04h11.28l-16.06,16.23,17.61,24.87h-11.34l-12.38-18.48-5.18,5.24v13.24h-9.04v-41.1h9.04ZM347.54,207.01v-5.47h4.89v-2.3c0-2.65.82-4.82,2.48-6.51,1.65-1.69,4.14-2.53,7.48-2.53.73,0,1.46.03,2.19.09.73.06,1.44.11,2.13.14v6.1c-.96-.11-1.96-.17-2.99-.17-1.11,0-1.91.26-2.39.78-.48.52-.72,1.39-.72,2.62v1.78h5.64v5.47h-5.64v24.29h-8.17v-24.29h-4.89ZM316.22,209.98c.73-1.94,1.76-3.59,3.11-4.95,1.34-1.36,2.95-2.42,4.84-3.17,1.88-.75,3.99-1.12,6.33-1.12s4.46.37,6.36,1.12c1.9.75,3.52,1.8,4.86,3.17,1.34,1.36,2.38,3.01,3.11,4.95.73,1.94,1.09,4.1,1.09,6.48s-.37,4.53-1.09,6.45c-.73,1.92-1.77,3.56-3.11,4.92-1.34,1.36-2.97,2.41-4.86,3.14-1.9.73-4.02,1.09-6.36,1.09s-4.45-.37-6.33-1.09c-1.88-.73-3.49-1.77-4.84-3.14-1.34-1.36-2.38-3-3.11-4.92-.73-1.92-1.09-4.07-1.09-6.45s.36-4.54,1.09-6.48M323.65,219.94c.23,1.13.62,2.15,1.18,3.05.56.9,1.3,1.62,2.22,2.16.92.54,2.07.81,3.45.81s2.54-.27,3.48-.81c.94-.54,1.69-1.26,2.24-2.16.56-.9.95-1.92,1.18-3.05.23-1.13.35-2.29.35-3.48s-.11-2.36-.35-3.51c-.23-1.15-.62-2.17-1.18-3.05-.56-.88-1.3-1.6-2.24-2.16-.94-.56-2.1-.83-3.48-.83s-2.53.28-3.45.83c-.92.56-1.66,1.28-2.22,2.16-.56.88-.95,1.9-1.18,3.05-.23,1.15-.35,2.32-.35,3.51s.11,2.35.35,3.48M289.23,240.17c-1.57,1.04-3.76,1.55-6.56,1.55-.85,0-1.68-.03-2.5-.09-.83-.06-1.66-.12-2.5-.2v-6.74c.77.08,1.55.15,2.36.23.81.08,1.61.1,2.42.06,1.07-.12,1.87-.54,2.39-1.27.52-.73.78-1.54.78-2.42,0-.65-.11-1.27-.35-1.84l-10.42-27.92h8.69l6.73,20.38h.12l6.5-20.38h8.46l-12.43,33.44c-.88,2.42-2.11,4.14-3.68,5.18M274.89,201.55v5.47h-5.99v14.74c0,1.38.23,2.3.69,2.76.46.46,1.38.69,2.76.69.46,0,.9-.02,1.32-.06.42-.04.83-.1,1.21-.17v6.33c-.69.12-1.46.19-2.3.23-.84.04-1.67.06-2.48.06-1.27,0-2.47-.09-3.6-.26-1.13-.17-2.13-.51-2.99-1.01-.86-.5-1.55-1.21-2.04-2.13-.5-.92-.75-2.13-.75-3.63v-17.56h-4.95v-5.47h4.95v-8.92h8.17v8.92h5.99ZM252.67,231.31h-8.17v-29.76h8.17v29.76ZM244.5,190.21h8.17v6.74h-8.17v-6.74ZM220.81,223.91c.36.63.83,1.15,1.41,1.56.58.4,1.24.7,1.99.89.75.19,1.52.29,2.33.29.58,0,1.18-.07,1.81-.2.63-.13,1.21-.35,1.73-.63.52-.29.95-.67,1.29-1.15.35-.48.52-1.08.52-1.81,0-1.23-.82-2.15-2.45-2.76-1.63-.61-3.9-1.23-6.82-1.84-1.19-.27-2.35-.58-3.48-.95-1.13-.36-2.14-.84-3.02-1.44s-1.59-1.34-2.13-2.24c-.54-.9-.81-2.01-.81-3.31,0-1.92.37-3.49,1.12-4.72.75-1.23,1.74-2.2,2.96-2.91,1.23-.71,2.61-1.21,4.14-1.5s3.11-.43,4.72-.43,3.18.15,4.69.46c1.51.31,2.87.83,4.06,1.55,1.19.73,2.18,1.7,2.96,2.91.79,1.21,1.26,2.73,1.41,4.58h-7.77c-.12-1.57-.71-2.64-1.79-3.19-1.07-.56-2.34-.83-3.8-.83-.46,0-.96.03-1.5.09-.54.06-1.03.18-1.47.37-.44.19-.82.47-1.12.84-.31.37-.46.85-.46,1.47,0,.73.27,1.32.8,1.78.54.46,1.24.84,2.1,1.12.86.29,1.85.55,2.97.78,1.11.23,2.24.48,3.4.75,1.19.27,2.35.6,3.48.98,1.13.38,2.14.89,3.02,1.53.88.63,1.59,1.42,2.13,2.36.54.94.81,2.1.81,3.48,0,1.96-.39,3.6-1.18,4.92-.79,1.32-1.81,2.39-3.08,3.2-1.27.81-2.72,1.37-4.35,1.7-1.63.33-3.29.49-4.98.49s-3.42-.17-5.07-.52c-1.65-.35-3.12-.92-4.4-1.73-1.29-.81-2.34-1.87-3.17-3.19-.83-1.32-1.28-2.98-1.35-4.98h7.77c0,.88.18,1.64.55,2.27M199.89,201.55v5.53h.11c.38-.92.9-1.77,1.55-2.56.65-.79,1.4-1.46,2.24-2.01.84-.56,1.75-.99,2.7-1.29.96-.31,1.96-.46,2.99-.46.54,0,1.13.1,1.78.29v7.6c-.38-.08-.84-.14-1.38-.2-.54-.06-1.06-.09-1.55-.09-1.5,0-2.76.25-3.8.75-1.04.5-1.87,1.18-2.5,2.04-.63.86-1.08,1.87-1.35,3.02-.27,1.15-.4,2.4-.4,3.74v13.41h-8.17v-29.76h7.77ZM168.4,224.17c1.23,1.19,2.99,1.79,5.3,1.79,1.65,0,3.07-.41,4.26-1.24,1.19-.82,1.92-1.7,2.19-2.62h7.2c-1.15,3.57-2.92,6.12-5.3,7.66-2.38,1.54-5.26,2.3-8.63,2.3-2.34,0-4.45-.37-6.33-1.12-1.88-.75-3.47-1.81-4.78-3.19-1.3-1.38-2.31-3.03-3.02-4.95-.71-1.92-1.06-4.03-1.06-6.33s.36-4.3,1.09-6.22c.73-1.92,1.76-3.58,3.11-4.98,1.34-1.4,2.94-2.5,4.81-3.31,1.86-.81,3.92-1.21,6.19-1.21,2.53,0,4.74.49,6.62,1.47,1.88.98,3.42,2.29,4.63,3.94,1.21,1.65,2.08,3.53,2.62,5.64.54,2.11.73,4.32.57,6.62h-21.47c.12,2.65.79,4.57,2.01,5.76M177.64,208.51c-.98-1.07-2.47-1.61-4.46-1.61-1.31,0-2.39.22-3.25.66-.86.44-1.56.99-2.07,1.64-.52.65-.88,1.34-1.09,2.07-.21.73-.34,1.38-.38,1.96h13.3c-.38-2.07-1.07-3.65-2.04-4.72M137.66,231.31l-10.19-29.76h8.58l6.27,20.32h.12l6.27-20.32h8.12l-10.07,29.76h-9.1ZM124.42,231.31h-8.17v-29.76h8.17v29.76ZM116.25,190.21h8.17v6.74h-8.17v-6.74ZM90.23,201.55v4.14h.17c1.04-1.73,2.38-2.98,4.03-3.77,1.65-.79,3.34-1.18,5.07-1.18,2.19,0,3.98.3,5.38.89,1.4.6,2.5,1.42,3.31,2.48.81,1.06,1.37,2.34,1.7,3.86.33,1.52.49,3.19.49,5.04v18.31h-8.17v-16.81c0-2.46-.38-4.29-1.15-5.5-.77-1.21-2.13-1.81-4.09-1.81-2.23,0-3.84.66-4.84,1.99-1,1.32-1.5,3.5-1.5,6.53v15.6h-8.17v-29.76h7.77ZM71.47,228.17c-3.11,2.71-7.41,4.06-12.89,4.06s-9.87-1.34-12.92-4.03c-3.05-2.69-4.58-6.83-4.58-12.43v-25.56h9.04v25.56c0,1.11.1,2.21.29,3.28.19,1.07.6,2.02,1.21,2.85.61.82,1.47,1.5,2.56,2.01,1.09.52,2.56.78,4.4.78,3.22,0,5.45-.72,6.68-2.16s1.84-3.69,1.84-6.76v-25.56h9.04v25.56c0,5.57-1.56,9.7-4.66,12.4"/>
    <path class="cls-1" d="M211.18,107.63V0H41.32v93.66l56.88-47.33c5.23-4.35,12.7-4.76,18.37-1.03l94.61,62.32ZM41.32,133.84v36.03h169.87v-25.25l-102.04-67.21-67.83,56.44Z"/>
    <rect class="cls-1" y="93.89" width="41.32" height="39.92"/>
  </g>
</svg>